<?xml version="1.0" standalone="no"?>
<!DOCTYPE svg PUBLIC "-//W3C//DTD SVG 20010904//EN"
 "http://www.w3.org/TR/2001/REC-SVG-20010904/DTD/svg10.dtd">
<svg version="1.0" xmlns="http://www.w3.org/2000/svg"
 width="512.000000pt" height="512.000000pt" viewBox="0 0 512.000000 512.000000"
 preserveAspectRatio="xMidYMid meet">

<g transform="translate(0.000000,512.000000) scale(0.100000,-0.100000)"
fill="#000000" stroke="none">
<path d="M545 4826 c-107 -34 -186 -102 -232 -201 l-28 -60 0 -1885 0 -1885
28 -60 c36 -78 104 -146 181 -182 l61 -28 1027 0 1028 0 32 33 c28 28 33 39
33 82 0 43 -5 54 -33 82 l-32 33 -1010 5 -1010 5 -32 33 -33 32 0 1850 0 1850
33 32 32 33 1490 0 1490 0 32 -33 33 -32 3 -1050 2 -1050 -24 0 c-58 0 -228
-53 -331 -105 -129 -63 -216 -127 -308 -224 -124 -132 -216 -298 -264 -478
-23 -87 -26 -117 -26 -263 0 -146 3 -176 26 -263 30 -111 95 -256 157 -346 55
-83 158 -190 239 -252 92 -70 267 -154 386 -186 89 -23 118 -26 265 -26 147 0
176 3 265 26 235 63 452 207 596 396 70 92 154 267 186 386 23 89 26 118 26
265 0 146 -3 176 -26 263 -82 308 -278 552 -558 697 -98 50 -229 94 -319 106
l-50 7 -2 1066 -3 1066 -28 60 c-47 100 -126 169 -227 199 -48 14 -212 16
-1544 15 -1175 0 -1499 -3 -1531 -13z m3345 -2637 c93 -15 204 -54 290 -102
101 -57 250 -205 307 -307 149 -266 149 -574 0 -840 -57 -102 -206 -250 -307
-307 -267 -149 -574 -149 -840 0 -102 57 -250 206 -307 307 -149 267 -149 573
0 840 57 101 205 250 307 307 170 95 367 132 550 102z"/>
<path d="M4220 1794 c-8 -4 -147 -137 -307 -298 l-293 -291 -155 155 -155 155
-50 0 c-43 0 -54 -5 -82 -33 -28 -28 -33 -39 -33 -82 l0 -50 213 -212 212
-213 50 0 50 0 352 353 353 352 0 50 c0 42 -5 54 -31 81 -31 30 -89 46 -124
33z"/>
<path d="M1963 4401 c-186 -30 -348 -115 -479 -253 -151 -157 -224 -342 -224
-565 0 -319 171 -594 455 -733 143 -70 203 -84 365 -84 110 0 149 4 213 22
298 85 518 313 589 611 16 71 19 109 16 216 -4 114 -9 142 -37 225 -42 124
-96 215 -185 307 -112 119 -238 195 -389 234 -83 22 -248 32 -324 20z m232
-246 c225 -48 413 -234 455 -452 17 -87 8 -234 -18 -307 -29 -79 -34 -83 -74
-53 -18 13 -59 39 -90 57 -32 17 -58 33 -58 35 0 1 12 29 27 61 24 50 28 72
28 149 0 80 -3 97 -32 157 -42 89 -101 151 -182 191 -61 30 -72 32 -171 32
-99 0 -109 -2 -172 -33 -186 -91 -267 -314 -182 -503 15 -33 25 -60 23 -62 -2
-1 -29 -15 -59 -31 -30 -16 -70 -40 -88 -54 -40 -29 -45 -25 -74 54 -26 73
-35 220 -18 307 41 215 229 403 451 451 84 19 149 19 234 1z m-34 -388 c89
-59 89 -185 0 -244 -71 -48 -175 -20 -213 57 -50 98 21 210 132 210 32 0 58
-7 81 -23z m119 -546 c61 -25 160 -81 160 -92 0 -4 -22 -21 -50 -39 -117 -75
-288 -106 -425 -77 -73 15 -181 62 -225 96 -25 20 -25 20 -5 35 41 31 134 76
186 91 83 23 287 15 359 -14z"/>
<path d="M835 2591 c-44 -19 -70 -60 -70 -112 0 -42 5 -53 33 -81 l32 -33
1130 0 1130 0 32 33 c28 28 33 39 33 82 0 43 -5 54 -33 82 l-32 33 -1118 2
c-614 1 -1126 -2 -1137 -6z"/>
<path d="M835 2111 c-44 -19 -70 -60 -70 -112 0 -42 5 -53 33 -81 l32 -33 890
0 890 0 32 33 c28 28 33 39 33 82 0 43 -5 54 -33 82 l-32 33 -878 2 c-482 1
-886 -2 -897 -6z"/>
<path d="M1136 1589 c-109 -26 -240 -132 -326 -264 -37 -57 -45 -77 -45 -117
0 -40 5 -53 33 -80 28 -28 39 -33 81 -33 57 0 76 14 127 91 63 95 173 184 209
170 7 -2 21 -31 30 -63 38 -137 71 -190 137 -224 66 -34 135 -24 248 35 114
59 136 58 168 -4 37 -73 64 -95 122 -95 40 0 54 5 79 29 39 38 47 81 27 143
-26 77 -82 143 -156 181 -61 32 -70 34 -143 30 -67 -4 -90 -11 -156 -45 l-78
-39 -22 70 c-58 184 -167 254 -335 215z"/>
</g>
</svg>
